<svg width="21" height="21" viewBox="0 0 21 21" fill="none" xmlns="http://www.w3.org/2000/svg">
<path d="M20.7505 19.69L15.0865 14.026C16.4475 12.3919 17.1263 10.2961 16.9815 8.17438C16.8366 6.05268 15.8794 4.0685 14.3089 2.63459C12.7384 1.20068 10.6755 0.427459 8.54942 0.475767C6.42333 0.524076 4.39772 1.3902 2.89396 2.89396C1.3902 4.39772 0.524076 6.42333 0.475767 8.54942C0.427459 10.6755 1.20068 12.7384 2.63459 14.3089C4.0685 15.8794 6.05268 16.8366 8.17438 16.9815C10.2961 17.1263 12.3919 16.4475 14.026 15.0865L19.69 20.7505L20.7505 19.69ZM2.00045 8.75045C2.00045 7.41543 2.39633 6.11039 3.13803 5.00035C3.87973 3.89032 4.93394 3.02516 6.16734 2.51427C7.40074 2.00337 8.75794 1.8697 10.0673 2.13015C11.3767 2.3906 12.5794 3.03348 13.5234 3.97748C14.4674 4.92149 15.1103 6.12422 15.3708 7.43359C15.6312 8.74296 15.4975 10.1002 14.9866 11.3336C14.4757 12.567 13.6106 13.6212 12.5006 14.3629C11.3905 15.1046 10.0855 15.5005 8.75045 15.5005C6.96085 15.4985 5.24512 14.7867 3.97967 13.5212C2.71423 12.2558 2.00244 10.5401 2.00045 8.75045Z" fill="#4A4A4A"/>
</svg>
