<svg width="124" height="132" viewBox="0 0 124 132" fill="none" xmlns="http://www.w3.org/2000/svg">
<g filter="url(#filter0_d_806_5052)">
<circle cx="58" cy="50" r="50" fill="#00E676"/>
</g>
<path fill-rule="evenodd" clip-rule="evenodd" d="M75.1144 54.0832C74.3253 53.6886 70.4566 51.7874 69.7363 51.5226C69.0161 51.2605 68.4918 51.1307 67.9649 51.9198C67.4406 52.7036 65.9339 54.4777 65.4758 55.002C65.015 55.529 64.5569 55.5925 63.7705 55.2006C62.984 54.8034 60.4473 53.9746 57.4418 51.2949C55.1037 49.2083 53.5228 46.6318 53.0647 45.8427C52.6066 45.0563 53.0144 44.6299 53.409 44.238C53.7638 43.8859 54.1954 43.3192 54.59 42.8611C54.9845 42.4004 55.1143 42.072 55.3764 41.5451C55.6412 41.0208 55.5088 40.5627 55.3102 40.1681C55.1143 39.7736 53.5414 35.8996 52.8847 34.324C52.2465 32.7909 51.5978 33.0001 51.1158 32.9736C50.6551 32.9524 50.1308 32.9471 49.6065 32.9471C49.0822 32.9471 48.2295 33.1431 47.5093 33.9321C46.7864 34.7186 44.7554 36.6225 44.7554 40.4965C44.7554 44.3678 47.5729 48.1094 47.9674 48.6363C48.3619 49.1606 53.5149 57.1098 61.4085 60.5177C63.2885 61.328 64.7529 61.8126 65.8941 62.1727C67.7795 62.7738 69.4954 62.6891 70.8511 62.4852C72.3605 62.2601 75.5063 60.5813 76.163 58.7436C76.817 56.9059 76.817 55.3304 76.6211 55.002C76.4251 54.6737 75.9008 54.4777 75.1117 54.0832H75.1144ZM60.7571 73.6861H60.7465C56.0581 73.687 51.4558 72.4266 47.4219 70.0372L46.4686 69.4705L36.5599 72.0708L39.2053 62.411L38.583 61.4207C35.9619 57.2484 34.5748 52.4197 34.5819 47.4924C34.5872 33.061 46.3283 21.3199 60.7677 21.3199C67.7583 21.3199 74.3306 24.0473 79.2717 28.9937C81.7088 31.4208 83.6405 34.307 84.9549 37.4855C86.2694 40.6639 86.9406 44.0714 86.9296 47.5109C86.9243 61.9424 75.1832 73.6861 60.7571 73.6861ZM83.0318 25.2362C80.1142 22.2994 76.6429 19.9708 72.8188 18.3854C68.9948 16.8 64.8941 15.9892 60.7544 16.0001C43.3997 16.0001 29.2701 30.127 29.2648 47.4897C29.2621 53.0399 30.7106 58.4576 33.4671 63.2319L29 79.5513L45.6928 75.1716C50.3105 77.6875 55.4852 79.0058 60.7438 79.0059H60.7571C78.1119 79.0059 92.2414 64.879 92.2467 47.5136C92.2595 43.3755 91.4517 39.276 89.87 35.4522C88.2883 31.6283 85.9641 28.1561 83.0318 25.2362Z" fill="white"/>
<defs>
<filter id="filter0_d_806_5052" x="0" y="0" width="124" height="132" filterUnits="userSpaceOnUse" color-interpolation-filters="sRGB">
<feFlood flood-opacity="0" result="BackgroundImageFix"/>
<feColorMatrix in="SourceAlpha" type="matrix" values="0 0 0 0 0 0 0 0 0 0 0 0 0 0 0 0 0 0 127 0" result="hardAlpha"/>
<feMorphology radius="8" operator="erode" in="SourceAlpha" result="effect1_dropShadow_806_5052"/>
<feOffset dx="4" dy="20"/>
<feGaussianBlur stdDeviation="10"/>
<feComposite in2="hardAlpha" operator="out"/>
<feColorMatrix type="matrix" values="0 0 0 0 0 0 0 0 0 0 0 0 0 0 0 0 0 0 0.15 0"/>
<feBlend mode="normal" in2="BackgroundImageFix" result="effect1_dropShadow_806_5052"/>
<feBlend mode="normal" in="SourceGraphic" in2="effect1_dropShadow_806_5052" result="shape"/>
</filter>
</defs>
</svg>
